<?xml version="1.0" encoding="UTF-8"?>
<svg version="1.1" xmlns="http://www.w3.org/2000/svg" width="300" height="300">
<path d="M0 0 C30.03 0 60.06 0 91 0 C91 0.66 91 1.32 91 2 C91.66 2 92.32 2 93 2 C93 3.65 93 5.3 93 7 C93.66 7 94.32 7 95 7 C95.495 9.475 95.495 9.475 96 12 C96.66 12 97.32 12 98 12 C98 13.32 98 14.64 98 16 C98.66 16 99.32 16 100 16 C100 17.98 100 19.96 100 22 C100.99 22 101.98 22 103 22 C103 23.98 103 25.96 103 28 C103.66 28 104.32 28 105 28 C105.495 30.97 105.495 30.97 106 34 C106.66 34 107.32 34 108 34 C108 34.99 108 35.98 108 37 C108.66 37 109.32 37 110 37 C110.12375 37.804375 110.2475 38.60875 110.375 39.4375 C110.684375 40.7059375 110.684375 40.7059375 111 42 C111.66 42.33 112.32 42.66 113 43 C113 44.98 113 46.96 113 49 C114.485 49.495 114.485 49.495 116 50 C116 51.65 116 53.3 116 55 C116.66 55 117.32 55 118 55 C118.495 57.475 118.495 57.475 119 60 C119.66 60 120.32 60 121 60 C121 61.32 121 62.64 121 64 C121.66 64 122.32 64 123 64 C123 65.98 123 67.96 123 70 C123.99 70 124.98 70 126 70 C126 71.98 126 73.96 126 76 C126.66 76 127.32 76 128 76 C128.33 77.65 128.66 79.3 129 81 C129.66 81 130.32 81 131 81 C131 82.32 131 83.64 131 85 C131.66 85 132.32 85 133 85 C133.12375 85.804375 133.2475 86.60875 133.375 87.4375 C133.58125 88.283125 133.7875 89.12875 134 90 C134.66 90.33 135.32 90.66 136 91 C136 92.98 136 94.96 136 97 C136.66 97 137.32 97 138 97 C138.33 98.65 138.66 100.3 139 102 C139.66 102 140.32 102 141 102 C141.12375 102.969375 141.2475 103.93875 141.375 104.9375 C141.58125 105.948125 141.7875 106.95875 142 108 C142.66 108.33 143.32 108.66 144 109 C143.67 109.66 143.34 110.32 143 111 C143.99 111.33 144.98 111.66 146 112 C146 113.65 146 115.3 146 117 C146.99 117.33 147.98 117.66 149 118 C149 119.65 149 121.3 149 123 C149.66 123 150.32 123 151 123 C151.12375 123.804375 151.2475 124.60875 151.375 125.4375 C151.58125 126.283125 151.7875 127.12875 152 128 C152.66 128.33 153.32 128.66 154 129 C154 129.99 154 130.98 154 132 C154.66 132 155.32 132 156 132 C156 133.98 156 135.96 156 138 C156.99 138 157.98 138 159 138 C159 139.98 159 141.96 159 144 C159.66 144 160.32 144 161 144 C161.12375 144.804375 161.2475 145.60875 161.375 146.4375 C161.58125 147.283125 161.7875 148.12875 162 149 C162.66 149.33 163.32 149.66 164 150 C165.62734766 153.34510352 166 155.18835834 166 159 C166.99 159 167.98 159 169 159 C169 160.98 169 162.96 169 165 C169.66 165 170.32 165 171 165 C171.33 166.98 171.66 168.96 172 171 C172.66 171 173.32 171 174 171 C174.33 172.65 174.66 174.3 175 176 C175.66 176 176.32 176 177 176 C177 177.32 177 178.64 177 180 C177.66 180 178.32 180 179 180 C179 181.98 179 183.96 179 186 C179.99 186 180.98 186 182 186 C182 187.98 182 189.96 182 192 C182.66 192 183.32 192 184 192 C184.33 193.65 184.66 195.3 185 197 C185.66 197 186.32 197 187 197 C187 198.98 187 200.96 187 203 C187.66 203 188.32 203 189 203 C189 203.99 189 204.98 189 206 C189.99 206.33 190.98 206.66 192 207 C192 208.65 192 210.3 192 212 C192.66 212 193.32 212 194 212 C194 214.97 194 217.94 194 221 C193.34 221 192.68 221 192 221 C192 222.32 192 223.64 192 225 C191.34 225 190.68 225 190 225 C189.67 226.65 189.34 228.3 189 230 C188.34 230 187.68 230 187 230 C187 231.98 187 233.96 187 236 C186.01 236 185.02 236 184 236 C183.34 238.97 182.68 241.94 182 245 C181.01 245 180.02 245 179 245 C179.04125 245.94875 179.0825 246.8975 179.125 247.875 C178.96635597 251.84110075 177.70800563 252.29199437 175 255 C174.835 255.825 174.67 256.65 174.5 257.5 C174 260 174 260 172 262 C171.3574765 264.06874034 171.3574765 264.06874034 171 266 C170.34 266 169.68 266 169 266 C169 266.99 169 267.98 169 269 C168.34 269 167.68 269 167 269 C166.67 270.98 166.34 272.96 166 275 C165.34 275 164.68 275 164 275 C164 276.65 164 278.3 164 280 C163.01 280.33 162.02 280.66 161 281 C161 281.99 161 282.98 161 284 C160.34 284 159.68 284 159 284 C159 285.65 159 287.3 159 289 C158.01 289.33 157.02 289.66 156 290 C155.34 293.3 154.68 296.6 154 300 C151.36 300 148.72 300 146 300 C146 297.69 146 295.38 146 293 C145.34 293 144.68 293 144 293 C144 292.01 144 291.02 144 290 C143.01 289.67 142.02 289.34 141 289 C141 287.35 141 285.7 141 284 C140.34 284 139.68 284 139 284 C138.67 282.02 138.34 280.04 138 278 C137.34 278 136.68 278 136 278 C136 277.01 136 276.02 136 275 C135.34 275 134.68 275 134 275 C132.875 271.25 132.875 271.25 134 269 C133.01 269 132.02 269 131 269 C131 267.02 131 265.04 131 263 C130.01 262.67 129.02 262.34 128 262 C128.33 261.34 128.66 260.68 129 260 C128.01 260 127.02 260 126 260 C126 258.02 126 256.04 126 254 C125.01 254 124.02 254 123 254 C123 252.02 123 250.04 123 248 C122.34 248 121.68 248 121 248 C120.505 245.525 120.505 245.525 120 243 C119.34 243 118.68 243 118 243 C118 241.68 118 240.36 118 239 C117.34 239 116.68 239 116 239 C116 237.02 116 235.04 116 233 C115.01 233 114.02 233 113 233 C112.01 228.545 112.01 228.545 111 224 C110.01 224 109.02 224 108 224 C108 222.02 108 220.04 108 218 C107.34 218 106.68 218 106 218 C104.76078698 215.02588876 103.69941596 212.14737182 103 209 C102.34 209 101.68 209 101 209 C100.87625 208.195625 100.7525 207.39125 100.625 206.5625 C100.41875 205.716875 100.2125 204.87125 100 204 C99.34 203.67 98.68 203.34 98 203 C97.31974363 201.00458132 96.65509503 199.00382009 96 197 C95.46375 196.113125 94.9275 195.22625 94.375 194.3125 C93 192 93 192 93 189 C92.01 188.67 91.02 188.34 90 188 C90 186.35 90 184.7 90 183 C89.34 183 88.68 183 88 183 C87.67 181.02 87.34 179.04 87 177 C86.34 177 85.68 177 85 177 C85 176.01 85 175.02 85 174 C84.34 174 83.68 174 83 174 C83 172.02 83 170.04 83 168 C82.01 168 81.02 168 80 168 C80 166.02 80 164.04 80 162 C79.34 162 78.68 162 78 162 C78 161.01 78 160.02 78 159 C77.01 159 76.02 159 75 159 C75 157.02 75 155.04 75 153 C74.34 153 73.68 153 73 153 C72.67 151.02 72.34 149.04 72 147 C71.34 147 70.68 147 70 147 C70 146.01 70 145.02 70 144 C69.34 143.67 68.68 143.34 68 143 C67.66666667 141.66666667 67.33333333 140.33333333 67 139 C66.34 138.67 65.68 138.34 65 138 C65 136.02 65 134.04 65 132 C76.55 132 88.1 132 100 132 C100 132.99 100 133.98 100 135 C100.99 135 101.98 135 103 135 C104.49821059 138.37097383 105 140.20442119 105 144 C105.99 144 106.98 144 108 144 C108 145.98 108 147.96 108 150 C108.99 150.33 109.98 150.66 111 151 C110.67 151.66 110.34 152.32 110 153 C110.99 153 111.98 153 113 153 C113 154.98 113 156.96 113 159 C113.66 159 114.32 159 115 159 C115.33 160.98 115.66 162.96 116 165 C116.66 165 117.32 165 118 165 C118 165.99 118 166.98 118 168 C118.99 168 119.98 168 121 168 C121 169.98 121 171.96 121 174 C121.66 174 122.32 174 123 174 C123.495 176.475 123.495 176.475 124 179 C124.66 179 125.32 179 126 179 C126 180.32 126 181.64 126 183 C126.66 183 127.32 183 128 183 C128 184.98 128 186.96 128 189 C128.99 189 129.98 189 131 189 C131 190.65 131 192.3 131 194 C131.66 194 132.32 194 133 194 C133 195.32 133 196.64 133 198 C133.99 198 134.98 198 136 198 C137.27253436 201.64793184 138.32829194 205.1936543 139 209 C139.66 209 140.32 209 141 209 C141 209.99 141 210.98 141 212 C141.66 212 142.32 212 143 212 C143.33 213.98 143.66 215.96 144 218 C144.66 218 145.32 218 146 218 C146.33 219.98 146.66 221.96 147 224 C147.66 224 148.32 224 149 224 C149 224.99 149 225.98 149 227 C149.66 226.34 150.32 225.68 151 225 C151.99 224.67 152.98 224.34 154 224 C154 222.02 154 220.04 154 218 C154.99 218 155.98 218 157 218 C156.67 217.01 156.34 216.02 156 215 C156.99 215 157.98 215 159 215 C159 214.01 159 213.02 159 212 C158.34 212 157.68 212 157 212 C156.67 210.35 156.34 208.7 156 207 C155.34 207 154.68 207 154 207 C154 205.68 154 204.36 154 203 C153.01 203 152.02 203 151 203 C149.57741188 199.17679443 148.75957724 196.08718695 149 192 C148.01 192 147.02 192 146 192 C144.14223235 188.86501708 143.79859524 186.62528568 144 183 C143.01 183 142.02 183 141 183 C141 181.02 141 179.04 141 177 C140.34 177 139.68 177 139 177 C138.67 175.02 138.34 173.04 138 171 C137.34 171 136.68 171 136 171 C136 170.01 136 169.02 136 168 C135.34 168 134.68 168 134 168 C132.875 164.25 132.875 164.25 134 162 C133.01 162 132.02 162 131 162 C131 160.02 131 158.04 131 156 C130.01 155.67 129.02 155.34 128 155 C126 153 126 153 125.875 149.875 C125.91625 148.92625 125.9575 147.9775 126 147 C125.01 146.67 124.02 146.34 123 146 C123 144.35 123 142.7 123 141 C122.34 141 121.68 141 121 141 C119.76078698 138.02588876 118.69941596 135.14737182 118 132 C117.34 132 116.68 132 116 132 C116 130.02 116 128.04 116 126 C115.01 126 114.02 126 113 126 C113 124.02 113 122.04 113 120 C112.34 120 111.68 120 111 120 C111 119.01 111 118.02 111 117 C110.01 117 109.02 117 108 117 C108 115.02 108 113.04 108 111 C107.34 111 106.68 111 106 111 C105.87625 110.195625 105.7525 109.39125 105.625 108.5625 C105.315625 107.2940625 105.315625 107.2940625 105 106 C104.34 105.67 103.68 105.34 103 105 C103 103.35 103 101.7 103 100 C101.515 99.505 101.515 99.505 100 99 C100 98.34 100 97.68 100 97 C99.34 96.67 98.68 96.34 98 96 C98 94.35 98 92.7 98 91 C97.34 91 96.68 91 96 91 C95.67 89.02 95.34 87.04 95 85 C94.34 85 93.68 85 93 85 C93 84.01 93 83.02 93 82 C91.515 81.505 91.515 81.505 90 81 C90 79.35 90 77.7 90 76 C89.34 76 88.68 76 88 76 C88 74.02 88 72.04 88 70 C87.01 70 86.02 70 85 70 C85 68.02 85 66.04 85 64 C84.34 64 83.68 64 83 64 C83 63.01 83 62.02 83 61 C82.01 61 81.02 61 80 61 C80 59.02 80 57.04 80 55 C79.34 55 78.68 55 78 55 C77.87625 54.195625 77.7525 53.39125 77.625 52.5625 C77.315625 51.2940625 77.315625 51.2940625 77 50 C76.34 49.67 75.68 49.34 75 49 C75 48.01 75 47.02 75 46 C74.34 46 73.68 46 73 46 C73 44.02 73 42.04 73 40 C72.34 40 71.68 40 71 40 C70.67 39.34 70.34 38.68 70 38 C69.0140107 37.99120064 69.0140107 37.99120064 68.00810242 37.98222351 C61.17869902 37.91838697 54.34977113 37.83399271 47.52075195 37.73754883 C44.97068544 37.7042539 42.42054441 37.67623637 39.87036133 37.65356445 C36.20882351 37.620103 32.54797136 37.56779019 28.88671875 37.51171875 C27.7428923 37.50532883 26.59906586 37.4989389 25.420578 37.49235535 C23.82926811 37.46266411 23.82926811 37.46266411 22.20581055 37.43237305 C21.27093307 37.42126999 20.3360556 37.41016693 19.37284851 37.39872742 C16.57101274 36.92791407 15.65061469 36.28310016 14 34 C13.8125 31.3125 13.8125 31.3125 14 29 C13.01 28.67 12.02 28.34 11 28 C11.33 27.01 11.66 26.02 12 25 C11.01 25 10.02 25 9 25 C9 23.02 9 21.04 9 19 C8.34 19 7.68 19 7 19 C6.67 17.02 6.34 15.04 6 13 C5.34 13 4.68 13 4 13 C4 12.01 4 11.02 4 10 C3.01 10 2.02 10 1 10 C0.67 6.7 0.34 3.4 0 0 Z " fill="#000000" transform="translate(0,0)"/>
<path d="M0 0 C4.92954646 -0.09885708 9.85851647 -0.17146125 14.78881836 -0.21972656 C16.46600392 -0.23984565 18.14311931 -0.26714451 19.82006836 -0.30175781 C22.230482 -0.35026569 24.63996872 -0.37296464 27.05078125 -0.390625 C27.80087967 -0.41127014 28.55097809 -0.43191528 29.32380676 -0.45318604 C34.50493282 -0.45542064 34.50493282 -0.45542064 36.99682617 1.83691406 C38 4 38 4 38 7 C38.66 7 39.32 7 40 7 C40 7.99 40 8.98 40 10 C40.99 10.33 41.98 10.66 43 11 C43 12.65 43 14.3 43 16 C43.66 16 44.32 16 45 16 C46.23921302 18.97411124 47.30058404 21.85262818 48 25 C48.66 25 49.32 25 50 25 C50 26.98 50 28.96 50 31 C50.99 31 51.98 31 53 31 C53 32.98 53 34.96 53 37 C53.66 37 54.32 37 55 37 C55 37.99 55 38.98 55 40 C55.99 40 56.98 40 58 40 C58 41.98 58 43.96 58 46 C58.66 46 59.32 46 60 46 C60.495 48.97 60.495 48.97 61 52 C61.66 52 62.32 52 63 52 C63 52.99 63 53.98 63 55 C63.66 55 64.32 55 65 55 C65.12375 55.804375 65.2475 56.60875 65.375 57.4375 C65.684375 58.7059375 65.684375 58.7059375 66 60 C66.66 60.33 67.32 60.66 68 61 C68.625 63.5625 68.625 63.5625 69 66 C69.66 66 70.32 66 71 66 C71 66.99 71 67.98 71 69 C71.66 69.33 72.32 69.66 73 70 C73 71.98 73 73.96 73 76 C73.99 76 74.98 76 76 76 C76 77.98 76 79.96 76 82 C76.66 82 77.32 82 78 82 C78 82.99 78 83.98 78 85 C78.99 85 79.98 85 81 85 C81 86.98 81 88.96 81 91 C81.66 91 82.32 91 83 91 C83.12375 91.804375 83.2475 92.60875 83.375 93.4375 C83.684375 94.7059375 83.684375 94.7059375 84 96 C84.66 96.33 85.32 96.66 86 97 C87.88186002 100.0318856 88 101.24517355 88 105 C89.485 105.495 89.485 105.495 91 106 C91 107.65 91 109.3 91 111 C91.66 111 92.32 111 93 111 C93 111.99 93 112.98 93 114 C93.66 114.33 94.32 114.66 95 115 C95.625 117.5625 95.625 117.5625 96 120 C96.99 120 97.98 120 99 120 C99.66 117.03 100.32 114.06 101 111 C101.99 111 102.98 111 104 111 C103.95875 110.278125 103.9175 109.55625 103.875 108.8125 C104.01086393 105.75556157 104.63673158 103.72653683 106 101 C106.66 100.67 107.32 100.34 108 100 C108.495 98.515 108.495 98.515 109 97 C109.66 97 110.32 97 111 97 C111.33 95.02 111.66 93.04 112 91 C112.66 91 113.32 91 114 91 C114 89.02 114 87.04 114 85 C114.99 85 115.98 85 117 85 C117.66 82.03 118.32 79.06 119 76 C119.99 76 120.98 76 122 76 C122 74.02 122 72.04 122 70 C122.66 70 123.32 70 124 70 C124 69.01 124 68.02 124 67 C124.66 66.34 125.32 65.68 126 65 C126.6425235 62.93125966 126.6425235 62.93125966 127 61 C127.66 61 128.32 61 129 61 C129 59.02 129 57.04 129 55 C129.99 55 130.98 55 132 55 C132 54.01 132 53.02 132 52 C132.66 52 133.32 52 134 52 C134 50.02 134 48.04 134 46 C134.99 46 135.98 46 137 46 C136.95875 45.05125 136.9175 44.1025 136.875 43.125 C137 40 137 40 139 38 C139.33 37.34 139.66 36.68 140 36 C140.33 35.34 140.66 34.68 141 34 C141.33 33.01 141.66 32.02 142 31 C142.66 30.34 143.32 29.68 144 29 C144.6425235 26.93125966 144.6425235 26.93125966 145 25 C145.66 25 146.32 25 147 25 C147 24.01 147 23.02 147 22 C147.66 22 148.32 22 149 22 C149.33 20.02 149.66 18.04 150 16 C150.66 16 151.32 16 152 16 C152 14.35 152 12.7 152 11 C152.99 10.67 153.98 10.34 155 10 C155.62092718 8.18703385 155.62092718 8.18703385 156 6 C157.77777778 1.22222222 157.77777778 1.22222222 159 0 C161.59359322 -0.08851529 164.16039691 -0.11525945 166.75390625 -0.09765625 C167.52935287 -0.0962413 168.3047995 -0.09482635 169.10374451 -0.09336853 C171.59003494 -0.08775345 174.0762366 -0.07519846 176.5625 -0.0625 C178.24413933 -0.05748694 179.92578006 -0.0529237 181.60742188 -0.04882812 C185.73831566 -0.03777913 189.86914276 -0.02050445 194 0 C193.67 2.97 193.34 5.94 193 9 C192.01 9.33 191.02 9.66 190 10 C189.37907282 11.81296615 189.37907282 11.81296615 189 14 C188.3530635 15.6744239 187.69040574 17.34302621 187 19 C186.34 19 185.68 19 185 19 C185 20.98 185 22.96 185 25 C184.34 25.33 183.68 25.66 183 26 C182.09656316 27.88263881 182.09656316 27.88263881 181.375 30.0625 C181.11460937 30.79597656 180.85421875 31.52945312 180.5859375 32.28515625 C180.39257812 32.85105469 180.19921875 33.41695312 180 34 C179.34 34 178.68 34 178 34 C177.67 35.98 177.34 37.96 177 40 C176.34 40 175.68 40 175 40 C175 41.98 175 43.96 175 46 C174.01 46 173.02 46 172 46 C171.855625 46.928125 171.71125 47.85625 171.5625 48.8125 C171 52 171 52 170 55 C169.01 55.495 169.01 55.495 168 56 C167.34444881 58.52733235 167.34444881 58.52733235 167 61 C166.34 61 165.68 61 165 61 C165 62.65 165 64.3 165 66 C164.01 66.33 163.02 66.66 162 67 C162 67.99 162 68.98 162 70 C161.34 70 160.68 70 160 70 C160 71.98 160 73.96 160 76 C159.01 76 158.02 76 157 76 C157 77.98 157 79.96 157 82 C156.01 82 155.02 82 154 82 C154.185625 82.61875 154.37125 83.2375 154.5625 83.875 C155 86 155 86 154 88 C153.34 88 152.68 88 152 88 C152 88.99 152 89.98 152 91 C151.34 91 150.68 91 150 91 C149.814375 92.051875 149.814375 92.051875 149.625 93.125 C148.96161655 96.17656387 148.02788045 99.05340938 147 102 C146.01 102 145.02 102 144 102 C144 103.98 144 105.96 144 108 C143.34 108 142.68 108 142 108 C141.87625 108.556875 141.7525 109.11375 141.625 109.6875 C140.94023145 112.22114364 140.00866237 114.57921032 139 117 C138.34 117 137.68 117 137 117 C137 118.98 137 120.96 137 123 C136.01 123 135.02 123 134 123 C133.7834375 124.3921875 133.7834375 124.3921875 133.5625 125.8125 C133 129 133 129 132 132 C131.34 132.33 130.68 132.66 130 133 C129.65846063 134.66500443 129.32550502 136.33178677 129 138 C128.34 138.66 127.68 139.32 127 140 C126.3574765 142.06874034 126.3574765 142.06874034 126 144 C125.34 144 124.68 144 124 144 C123.505 146.97 123.505 146.97 123 150 C122.34 150 121.68 150 121 150 C121 150.99 121 151.98 121 153 C120.34 153 119.68 153 119 153 C119 154.98 119 156.96 119 159 C118.01 159 117.02 159 116 159 C116 160.98 116 162.96 116 165 C115.34 165 114.68 165 114 165 C113.87625 165.556875 113.7525 166.11375 113.625 166.6875 C112.94023145 169.22114364 112.00866237 171.57921032 111 174 C110.34 174 109.68 174 109 174 C109 175.98 109 177.96 109 180 C108.01 180 107.02 180 106 180 C106 181.98 106 183.96 106 186 C105.34 186 104.68 186 104 186 C104 186.99 104 187.98 104 189 C103.34 189.66 102.68 190.32 102 191 C101.3574765 193.06874034 101.3574765 193.06874034 101 195 C98.69 195 96.38 195 94 195 C93.67 193.02 93.34 191.04 93 189 C92.34 189 91.68 189 91 189 C91 188.01 91 187.02 91 186 C90.34 186 89.68 186 89 186 C89 184.02 89 182.04 89 180 C88.01 180 87.02 180 86 180 C86 178.02 86 176.04 86 174 C85.01 173.67 84.02 173.34 83 173 C83 171.35 83 169.7 83 168 C82.34 168 81.68 168 81 168 C81 167.01 81 166.02 81 165 C80.01 164.67 79.02 164.34 78 164 C78 162.35 78 160.7 78 159 C77.34 159 76.68 159 76 159 C76 157.02 76 155.04 76 153 C75.01 153 74.02 153 73 153 C71.50178941 149.62902617 71 147.79557881 71 144 C70.01 144 69.02 144 68 144 C68 142.02 68 140.04 68 138 C67.34 138 66.68 138 66 138 C65.87625 137.195625 65.7525 136.39125 65.625 135.5625 C65.41875 134.716875 65.2125 133.87125 65 133 C64.34 132.67 63.68 132.34 63 132 C61.37265234 128.65489648 61 126.81164166 61 123 C60.01 123 59.02 123 58 123 C58 121.02 58 119.04 58 117 C57.34 117 56.68 117 56 117 C55.67 115.35 55.34 113.7 55 112 C54.34 112 53.68 112 53 112 C53 110.68 53 109.36 53 108 C52.34 108 51.68 108 51 108 C50.87625 107.195625 50.7525 106.39125 50.625 105.5625 C50.41875 104.716875 50.2125 103.87125 50 103 C49.01 102.505 49.01 102.505 48 102 C47.66666667 100.33333333 47.33333333 98.66666667 47 97 C46.01 96.505 46.01 96.505 45 96 C45 94.35 45 92.7 45 91 C44.34 91 43.68 91 43 91 C43 90.01 43 89.02 43 88 C42.01 87.67 41.02 87.34 40 87 C40 85.35 40 83.7 40 82 C39.34 82 38.68 82 38 82 C38 80.02 38 78.04 38 76 C37.01 76 36.02 76 35 76 C34.34 73.03 33.68 70.06 33 67 C32.01 67 31.02 67 30 67 C30 65.02 30 63.04 30 61 C29.34 61 28.68 61 28 61 C27.67 59.02 27.34 57.04 27 55 C26.34 55 25.68 55 25 55 C24.505 52.525 24.505 52.525 24 50 C23.34 50 22.68 50 22 50 C22 49.01 22 48.02 22 47 C21.34 46.67 20.68 46.34 20 46 C20 44.02 20 42.04 20 40 C19.01 40 18.02 40 17 40 C17 38.02 17 36.04 17 34 C16.34 34 15.68 34 15 34 C15 33.01 15 32.02 15 31 C14.01 30.67 13.02 30.34 12 30 C12 28.35 12 26.7 12 25 C11.34 25 10.68 25 10 25 C10 23.02 10 21.04 10 19 C9.01 19 8.02 19 7 19 C6.34 16.03 5.68 13.06 5 10 C4.01 10 3.02 10 2 10 C2 8.02 2 6.04 2 4 C1.34 4 0.68 4 0 4 C0 2.68 0 1.36 0 0 Z " fill="#000000" transform="translate(106,0)"/>
<path d="" fill="#000000" transform="translate(0,0)"/>
</svg>
