<?xml version="1.0" encoding="UTF-8"?>
<!DOCTYPE svg PUBLIC "-//W3C//DTD SVG 1.1//EN" "http://www.w3.org/Graphics/SVG/1.1/DTD/svg11.dtd">
<svg xmlns="http://www.w3.org/2000/svg" version="1.1" width="400px" height="400px" style="shape-rendering:geometricPrecision; text-rendering:geometricPrecision; image-rendering:optimizeQuality; fill-rule:evenodd; clip-rule:evenodd" xmlns:xlink="http://www.w3.org/1999/xlink">
<g><path style="opacity:0.936" fill="#fefffe" d="M 7.5,32.5 C 46.1724,32.1668 84.8391,32.5001 123.5,33.5C 167.803,111.434 212.636,189.1 258,266.5C 258.667,268.167 258.667,269.833 258,271.5C 239.306,302.891 221.139,334.558 203.5,366.5C 201.833,367.833 200.167,367.833 198.5,366.5C 169.486,314.462 139.986,262.795 110,211.5C 105.828,202.907 101.162,194.574 96,186.5C 94.2776,183.721 93.1109,180.721 92.5,177.5C 108.17,177.333 123.837,177.5 139.5,178C 159.285,213.068 178.952,248.234 198.5,283.5C 199.167,284.833 199.833,284.833 200.5,283.5C 203.714,278.789 206.714,273.956 209.5,269C 171.774,203.714 134.441,138.214 97.5,72.5C 74.5097,71.5003 51.5097,71.1669 28.5,71.5C 21.8864,59.7162 15.0531,48.0495 8,36.5C 7.50999,35.2068 7.34332,33.8734 7.5,32.5 Z"/></g>
<g><path style="opacity:0.932" fill="#fefffe" d="M 143.5,32.5 C 159.181,32.1673 174.848,32.5006 190.5,33.5C 216.841,78.1784 242.674,123.178 268,168.5C 293.786,123.61 319.619,78.6101 345.5,33.5C 361.152,32.5006 376.819,32.1673 392.5,32.5C 392.425,35.4067 391.591,38.0734 390,40.5C 349.471,110.507 309.638,180.84 270.5,251.5C 268.833,251.5 267.167,251.5 265.5,251.5C 265.313,249.436 264.813,247.436 264,245.5C 224.302,176.093 184.635,106.76 145,37.5C 143.991,35.9751 143.491,34.3084 143.5,32.5 Z"/></g>
</svg>
