<?xml version="1.0" encoding="UTF-8"?>
<!DOCTYPE svg PUBLIC "-//W3C//DTD SVG 1.1//EN" "http://www.w3.org/Graphics/SVG/1.1/DTD/svg11.dtd">
<svg xmlns="http://www.w3.org/2000/svg" version="1.1" width="118px" height="101px" style="shape-rendering:geometricPrecision; text-rendering:geometricPrecision; image-rendering:optimizeQuality; fill-rule:evenodd; clip-rule:evenodd" xmlns:xlink="http://www.w3.org/1999/xlink">
<g><path style="opacity:1" fill="#fdfdfd" d="M -0.5,-0.5 C -0.166667,-0.5 0.166667,-0.5 0.5,-0.5C 1.83735,3.67295 3.83735,7.50628 6.5,11C 13.8559,11.1687 21.1892,11.6687 28.5,12.5C 39.8333,32.1667 51.1667,51.8333 62.5,71.5C 61.5589,73.7721 60.2255,75.7721 58.5,77.5C 51.7489,67 45.2489,56.3333 39,45.5C 34.8821,44.2023 30.7154,44.2023 26.5,45.5C 36.7684,63.7609 47.435,81.7609 58.5,99.5C 64.6047,90.9572 69.9381,81.9572 74.5,72.5C 61.4251,48.0163 48.0918,23.6829 34.5,-0.5C 37.1667,-0.5 39.8333,-0.5 42.5,-0.5C 54.3776,21.3895 66.711,43.0562 79.5,64.5C 92.289,43.0562 104.622,21.3895 116.5,-0.5C 116.833,-0.5 117.167,-0.5 117.5,-0.5C 117.5,33.1667 117.5,66.8333 117.5,100.5C 78.1667,100.5 38.8333,100.5 -0.5,100.5C -0.5,66.8333 -0.5,33.1667 -0.5,-0.5 Z"/></g>
<g><path style="opacity:1" fill="#050505" d="M 42.5,-0.5 C 46.5,-0.5 50.5,-0.5 54.5,-0.5C 62.8061,13.4827 71.1394,27.4827 79.5,41.5C 87.8606,27.4827 96.1939,13.4827 104.5,-0.5C 108.5,-0.5 112.5,-0.5 116.5,-0.5C 104.622,21.3895 92.289,43.0562 79.5,64.5C 66.711,43.0562 54.3776,21.3895 42.5,-0.5 Z"/></g>
<g><path style="opacity:1" fill="#fcfcfc" d="M 54.5,-0.5 C 71.1667,-0.5 87.8333,-0.5 104.5,-0.5C 96.1939,13.4827 87.8606,27.4827 79.5,41.5C 71.1394,27.4827 62.8061,13.4827 54.5,-0.5 Z"/></g>
<g><path style="opacity:1" fill="#040404" d="M 0.5,-0.5 C 11.8333,-0.5 23.1667,-0.5 34.5,-0.5C 48.0918,23.6829 61.4251,48.0163 74.5,72.5C 69.9381,81.9572 64.6047,90.9572 58.5,99.5C 47.435,81.7609 36.7684,63.7609 26.5,45.5C 30.7154,44.2023 34.8821,44.2023 39,45.5C 45.2489,56.3333 51.7489,67 58.5,77.5C 60.2255,75.7721 61.5589,73.7721 62.5,71.5C 51.1667,51.8333 39.8333,32.1667 28.5,12.5C 21.1892,11.6687 13.8559,11.1687 6.5,11C 3.83735,7.50628 1.83735,3.67295 0.5,-0.5 Z"/></g>
</svg>
